#N canvas 763 182 768 475 12;
#X msg 106 57 listen 11112;
#X msg 150 111 listen 0;
#X obj 111 162 netreceive -u -b;
#X obj 363 467 bng 19 250 50 0 empty empty empty 0 -10 0 12 #fcfcfc #000000 #000000;
#X obj 384 531 makenote 64 500;
#X obj 374 587 noteout 1;
#X obj 166 216 oscparse;
#X obj 191 253 list trim;
#X obj 319 307 route bounce;
#X obj 205 460 route speed;
#X obj 237 585 print speed;
#X obj 135 318 print;
#X obj 314 267 print;
#X msg 282 513 60;
#X obj 23 479 readsf~ 2;
#X msg 18 423 open choque.wav \, 1;
#X obj 38 607 dac~;
#X obj 20 566 *~;
#X obj 79 578 *~;
#X floatatom 133 551 5 0 0 0 - - - 0;
#X obj 118 381 bng 19 250 50 0 empty empty empty 0 -10 0 12 #fcfcfc #000000 #000000;
#X connect 0 0 2 0;
#X connect 1 0 2 0;
#X connect 2 0 6 0;
#X connect 3 0 13 0;
#X connect 4 0 5 0;
#X connect 4 1 5 1;
#X connect 6 0 7 0;
#X connect 7 0 8 0;
#X connect 7 0 12 0;
#X connect 8 0 11 0;
#X connect 8 0 20 0;
#X connect 8 1 9 0;
#X connect 9 0 10 0;
#X connect 9 0 19 0;
#X connect 13 0 4 0;
#X connect 14 0 17 0;
#X connect 14 1 18 0;
#X connect 15 0 14 0;
#X connect 17 0 16 0;
#X connect 18 0 16 1;
#X connect 19 0 18 1;
#X connect 19 0 17 1;
#X connect 20 0 15 0;
#X connect 20 0 9 0;
