#N canvas 28 116 1920 997 12;
#X obj 55 110 metro 500;
#X obj 56 66 tgl 19 0 empty empty empty 0 -10 0 12 #fcfcfc #000000 #000000 0 1;
#X obj 10 140 bng 19 250 50 0 empty empty empty 0 -10 0 12 #fcfcfc #000000 #000000;
#X msg 37 421 60;
#X msg 81 420 62, f 7;
#X msg 121 420 64;
#X msg 166 420 65;
#X msg 203 420 67;
#X msg 242 420 69;
#X msg 281 420 70;
#X msg 321 422 72;
#X obj 149 544 noteout 1;
#X obj 136 498 makenote 64 250;
#X obj 57 175 i;
#X msg 79 138 0;
#X floatatom 56 214 5 0 0 0 - - - 0;
#X obj 56 259 % 8;
#X obj 109 177 +;
#X msg 134 144 1;
#X obj 83 321 sel 0 1 2 3 4 5 6 7;
#X floatatom 66 289 5 0 0 0 - - - 0;
#X obj 473 111 metro 500;
#X obj 474 67 tgl 19 0 empty empty empty 0 -10 0 12 #fcfcfc #000000 #000000 0 1;
#X obj 428 141 bng 19 250 50 0 empty empty empty 0 -10 0 12 #fcfcfc #000000 #000000;
#X msg 455 422 60;
#X msg 499 421 62, f 7;
#X msg 539 421 64;
#X msg 584 421 65;
#X msg 621 421 67;
#X msg 660 421 69;
#X msg 699 421 70;
#X msg 739 422 72;
#X obj 567 545 noteout 1;
#X obj 554 499 makenote 64 250;
#X obj 475 176 i;
#X msg 497 139 0;
#X floatatom 474 215 5 0 0 0 - - - 0;
#X obj 474 260 % 8;
#X obj 527 178 +;
#X msg 552 145 1;
#X obj 501 322 sel 0 1 2 3 4 5 6 7;
#X floatatom 484 290 5 0 0 0 - - - 0;
#X obj 890 123 metro 500;
#X obj 891 79 tgl 19 0 empty empty empty 0 -10 0 12 #fcfcfc #000000 #000000 0 1;
#X obj 845 153 bng 19 250 50 0 empty empty empty 0 -10 0 12 #fcfcfc #000000 #000000;
#X msg 872 434 60;
#X msg 916 433 62, f 7;
#X msg 956 433 64;
#X msg 1001 433 65;
#X msg 1038 433 67;
#X msg 1077 433 69;
#X msg 1116 433 70;
#X msg 1156 435 72;
#X obj 984 557 noteout 1;
#X obj 971 511 makenote 64 250;
#X obj 892 188 i;
#X msg 914 151 0;
#X floatatom 891 227 5 0 0 0 - - - 0;
#X obj 891 272 % 8;
#X obj 944 190 +;
#X msg 969 157 1;
#X obj 918 334 sel 0 1 2 3 4 5 6 7;
#X floatatom 901 302 5 0 0 0 - - - 0;
#X obj 1219 112 metro 500;
#X obj 1220 68 tgl 19 0 empty empty empty 0 -10 0 12 #fcfcfc #000000 #000000 0 1;
#X obj 1174 142 bng 19 250 50 0 empty empty empty 0 -10 0 12 #fcfcfc #000000 #000000;
#X msg 1201 423 60;
#X msg 1245 422 62, f 7;
#X msg 1285 422 64;
#X msg 1330 422 65;
#X msg 1367 422 67;
#X msg 1406 422 69;
#X msg 1445 422 70;
#X msg 1485 424 72;
#X obj 1313 546 noteout 1;
#X obj 1300 500 makenote 64 250;
#X obj 1221 177 i;
#X msg 1243 140 0;
#X floatatom 1220 216 5 0 0 0 - - - 0;
#X obj 1220 261 % 8;
#X obj 1273 179 +;
#X msg 1298 146 1;
#X obj 1247 323 sel 0 1 2 3 4 5 6 7;
#X floatatom 1230 291 5 0 0 0 - - - 0;
#X msg 1346 142 2000;
#X msg 1291 47 500;
#X msg 1310 75 1000;
#X msg 1338 109 1500;
#X msg 1009 120 1500;
#X msg 1017 153 2000;
#X msg 981 86 1000;
#X msg 962 58 500;
#X msg 600 141 2000;
#X msg 592 108 1500;
#X msg 564 75 1000;
#X msg 545 46 500;
#X msg 182 140 2000;
#X msg 174 107 1500;
#X msg 146 74 1000;
#X msg 127 45 500;
#X connect 0 0 2 0;
#X connect 0 0 13 0;
#X connect 1 0 0 0;
#X connect 3 0 12 0;
#X connect 4 0 12 0;
#X connect 5 0 12 0;
#X connect 6 0 12 0;
#X connect 7 0 12 0;
#X connect 8 0 12 0;
#X connect 9 0 12 0;
#X connect 10 0 12 0;
#X connect 12 0 11 0;
#X connect 12 1 11 1;
#X connect 13 0 15 0;
#X connect 13 0 17 0;
#X connect 14 0 13 1;
#X connect 15 0 16 0;
#X connect 16 0 20 0;
#X connect 17 0 13 1;
#X connect 18 0 17 1;
#X connect 19 0 6 0;
#X connect 19 1 3 0;
#X connect 19 2 4 0;
#X connect 19 3 10 0;
#X connect 19 3 5 0;
#X connect 19 4 7 0;
#X connect 19 5 8 0;
#X connect 19 6 9 0;
#X connect 19 7 6 0;
#X connect 19 8 3 0;
#X connect 20 0 19 0;
#X connect 21 0 23 0;
#X connect 21 0 34 0;
#X connect 22 0 21 0;
#X connect 24 0 33 0;
#X connect 25 0 33 0;
#X connect 26 0 33 0;
#X connect 27 0 33 0;
#X connect 28 0 33 0;
#X connect 29 0 33 0;
#X connect 30 0 33 0;
#X connect 31 0 33 0;
#X connect 33 0 32 0;
#X connect 33 1 32 1;
#X connect 34 0 36 0;
#X connect 34 0 38 0;
#X connect 35 0 34 1;
#X connect 36 0 37 0;
#X connect 37 0 41 0;
#X connect 38 0 34 1;
#X connect 39 0 38 1;
#X connect 40 0 27 0;
#X connect 40 1 24 0;
#X connect 40 2 25 0;
#X connect 40 3 31 0;
#X connect 40 3 26 0;
#X connect 40 4 28 0;
#X connect 40 5 29 0;
#X connect 40 6 30 0;
#X connect 40 7 27 0;
#X connect 40 8 24 0;
#X connect 41 0 40 0;
#X connect 42 0 44 0;
#X connect 42 0 55 0;
#X connect 43 0 42 0;
#X connect 45 0 54 0;
#X connect 46 0 54 0;
#X connect 47 0 54 0;
#X connect 48 0 54 0;
#X connect 49 0 54 0;
#X connect 50 0 54 0;
#X connect 51 0 54 0;
#X connect 52 0 54 0;
#X connect 54 0 53 0;
#X connect 54 1 53 1;
#X connect 55 0 57 0;
#X connect 55 0 59 0;
#X connect 56 0 55 1;
#X connect 57 0 58 0;
#X connect 58 0 62 0;
#X connect 59 0 55 1;
#X connect 60 0 59 1;
#X connect 61 0 48 0;
#X connect 61 1 45 0;
#X connect 61 2 46 0;
#X connect 61 3 52 0;
#X connect 61 3 47 0;
#X connect 61 4 49 0;
#X connect 61 5 50 0;
#X connect 61 6 51 0;
#X connect 61 7 48 0;
#X connect 61 8 45 0;
#X connect 62 0 61 0;
#X connect 63 0 65 0;
#X connect 63 0 76 0;
#X connect 64 0 63 0;
#X connect 66 0 75 0;
#X connect 67 0 75 0;
#X connect 68 0 75 0;
#X connect 69 0 75 0;
#X connect 70 0 75 0;
#X connect 71 0 75 0;
#X connect 72 0 75 0;
#X connect 73 0 75 0;
#X connect 75 0 74 0;
#X connect 75 1 74 1;
#X connect 76 0 78 0;
#X connect 76 0 80 0;
#X connect 77 0 76 1;
#X connect 78 0 79 0;
#X connect 79 0 83 0;
#X connect 80 0 76 1;
#X connect 81 0 80 1;
#X connect 82 0 69 0;
#X connect 82 1 66 0;
#X connect 82 2 67 0;
#X connect 82 3 73 0;
#X connect 82 3 68 0;
#X connect 82 4 70 0;
#X connect 82 5 71 0;
#X connect 82 6 72 0;
#X connect 82 7 69 0;
#X connect 82 8 66 0;
#X connect 83 0 82 0;
#X connect 84 0 63 1;
#X connect 85 0 63 1;
#X connect 86 0 63 1;
#X connect 87 0 63 1;
#X connect 88 0 42 1;
#X connect 89 0 42 1;
#X connect 90 0 42 1;
#X connect 91 0 42 1;
#X connect 92 0 21 1;
#X connect 93 0 21 1;
#X connect 94 0 21 1;
#X connect 95 0 21 1;
#X connect 96 0 0 1;
#X connect 97 0 0 1;
#X connect 98 0 0 1;
#X connect 99 0 0 1;
